<svg width="1326" height="757" viewBox="0 0 1326 757" fill="none" xmlns="http://www.w3.org/2000/svg">
<path d="M1023.71 229.93L1032.56 172.447H893.646C899.84 134.421 906.918 95.5093 967.969 97.278C988.32 98.1624 1005.13 99.9311 1043.18 108.775L1057.33 19.4556C1032.56 8.84346 989.205 0 951.158 0C811.36 0.884346 773.314 61.0199 753.848 172.447H683.949L667.138 275.916H737.037C737.037 275.916 698.991 512.036 685.719 592.512C681.295 619.926 650.327 629.654 593.7 643.804L576.004 757C721.996 750.81 808.706 693.327 829.056 566.866C844.982 467.819 875.95 275.916 875.95 275.916H1015.75L966.2 585.437H1106L1172.36 172.447C1074.15 172.447 1023.71 229.93 1023.71 229.93Z" fill="#79A83D"/>
<path d="M596.354 480.204C604.317 480.204 619.359 479.32 635.285 474.898L619.359 573.945C589.275 582.788 560.077 586.326 533.533 586.326C452.132 586.326 425.588 550.067 425.588 494.354C425.588 481.973 425.588 470.476 428.242 456.327L501.68 0.888672H641.479L570.695 439.524C566.271 467.823 576.003 480.204 596.354 480.204ZM255.707 229.934C255.707 229.934 322.951 172.452 404.353 172.452L337.993 585.441C298.177 585.441 259.246 581.904 233.587 541.224C210.582 562.448 182.268 584.557 125.641 584.557C48.6639 585.441 0 528.843 0 419.184C0 299.798 61.0511 173.336 192.886 172.452C224.739 172.452 250.398 183.064 261.9 190.139L255.707 229.934ZM246.859 282.995C237.126 275.92 228.278 272.383 215.891 272.383C157.494 272.383 143.337 367.008 143.337 409.456C143.337 452.789 155.724 479.32 183.153 479.32C195.54 479.32 206.158 476.667 215.891 470.476L246.859 282.995Z" fill="#79A83D"/>
<path d="M1256.41 586.339C1294.53 586.339 1325.42 555.456 1325.42 517.36C1325.42 479.264 1294.53 448.381 1256.41 448.381C1218.29 448.381 1187.4 479.264 1187.4 517.36C1187.4 555.456 1218.29 586.339 1256.41 586.339Z" fill="#FFA80D"/>
</svg>
